<mxfile host="app.diagrams.net" modified="2021-01-06T02:08:18.281Z" agent="5.0 (X11; Linux x86_64) AppleWebKit/537.36 (KHTML, like Gecko) Chrome/87.0.4280.88 Safari/537.36" etag="vn7Ju4bWCu3ogXZlfgTn" version="14.1.8" type="github" pages="2">
  <diagram id="Z58pGtP5zJbnXp1TciGu" name="用户关联">
    <mxGraphModel dx="1562" dy="912" grid="1" gridSize="10" guides="1" tooltips="1" connect="1" arrows="1" fold="1" page="1" pageScale="1" pageWidth="827" pageHeight="1169" math="0" shadow="0">
      <root>
        <mxCell id="0" />
        <mxCell id="1" parent="0" />
        <mxCell id="ELI0qrgOZ5BdzHNoMAGf-1" value="OPS" style="rounded=0;whiteSpace=wrap;html=1;" vertex="1" parent="1">
          <mxGeometry x="120" y="40" width="120" height="60" as="geometry" />
        </mxCell>
        <mxCell id="ELI0qrgOZ5BdzHNoMAGf-2" value="MS API" style="rounded=1;whiteSpace=wrap;html=1;" vertex="1" parent="1">
          <mxGeometry x="520" y="40" width="120" height="60" as="geometry" />
        </mxCell>
        <mxCell id="ELI0qrgOZ5BdzHNoMAGf-11" value="name,password" style="edgeStyle=orthogonalEdgeStyle;rounded=0;orthogonalLoop=1;jettySize=auto;html=1;" edge="1" parent="1">
          <mxGeometry relative="1" as="geometry">
            <mxPoint x="241" y="190" as="sourcePoint" />
            <mxPoint x="521" y="190" as="targetPoint" />
          </mxGeometry>
        </mxCell>
        <mxCell id="ELI0qrgOZ5BdzHNoMAGf-26" style="edgeStyle=orthogonalEdgeStyle;rounded=0;orthogonalLoop=1;jettySize=auto;html=1;" edge="1" parent="1" source="ELI0qrgOZ5BdzHNoMAGf-4" target="ELI0qrgOZ5BdzHNoMAGf-6">
          <mxGeometry relative="1" as="geometry" />
        </mxCell>
        <mxCell id="ELI0qrgOZ5BdzHNoMAGf-4" value="Login" style="shape=process;whiteSpace=wrap;html=1;backgroundOutline=1;" vertex="1" parent="1">
          <mxGeometry x="120" y="160" width="120" height="60" as="geometry" />
        </mxCell>
        <mxCell id="ELI0qrgOZ5BdzHNoMAGf-5" value="/singin" style="shape=process;whiteSpace=wrap;html=1;backgroundOutline=1;" vertex="1" parent="1">
          <mxGeometry x="520" y="160" width="120" height="60" as="geometry" />
        </mxCell>
        <mxCell id="ELI0qrgOZ5BdzHNoMAGf-27" value="&lt;span style=&quot;font-style: normal ; font-weight: 400 ; letter-spacing: normal ; text-align: center ; text-indent: 0px ; text-transform: none ; word-spacing: 0px ; font-family: &amp;#34;droid sans mono&amp;#34; , monospace , monospace , &amp;#34;droid sans fallback&amp;#34; ; font-size: 12px ; background-color: rgb(255 , 255 , 254) ; color: rgb(163 , 21 , 21)&quot;&gt;&quot;success&quot;&lt;/span&gt;&lt;span style=&quot;color: rgb(0 , 0 , 0) ; font-style: normal ; font-weight: 400 ; letter-spacing: normal ; text-align: center ; text-indent: 0px ; text-transform: none ; word-spacing: 0px ; font-family: &amp;#34;droid sans mono&amp;#34; , monospace , monospace , &amp;#34;droid sans fallback&amp;#34; ; font-size: 12px ; background-color: rgb(255 , 255 , 254)&quot;&gt;:&lt;span&gt;&amp;nbsp;&lt;/span&gt;&lt;/span&gt;&lt;span style=&quot;font-style: normal ; letter-spacing: normal ; text-align: center ; text-indent: 0px ; text-transform: none ; word-spacing: 0px ; font-family: &amp;#34;droid sans mono&amp;#34; , monospace , monospace , &amp;#34;droid sans fallback&amp;#34; ; font-size: 12px ; background-color: rgb(255 , 255 , 254) ; color: rgb(4 , 81 , 165) ; font-weight: bold&quot;&gt;false&lt;br&gt;&lt;/span&gt;" style="edgeStyle=orthogonalEdgeStyle;rounded=0;orthogonalLoop=1;jettySize=auto;html=1;" edge="1" parent="1" source="ELI0qrgOZ5BdzHNoMAGf-6" target="ELI0qrgOZ5BdzHNoMAGf-7">
          <mxGeometry relative="1" as="geometry" />
        </mxCell>
        <mxCell id="ELI0qrgOZ5BdzHNoMAGf-30" value="&lt;span style=&quot;font-style: normal ; font-weight: 400 ; letter-spacing: normal ; text-align: center ; text-indent: 0px ; text-transform: none ; word-spacing: 0px ; font-family: &amp;#34;droid sans mono&amp;#34; , monospace , monospace , &amp;#34;droid sans fallback&amp;#34; ; font-size: 12px ; background-color: rgb(255 , 255 , 254) ; color: rgb(163 , 21 , 21)&quot;&gt;&quot;success&quot;&lt;/span&gt;&lt;span style=&quot;font-style: normal ; letter-spacing: normal ; text-align: center ; text-indent: 0px ; text-transform: none ; word-spacing: 0px ; font-family: &amp;#34;droid sans mono&amp;#34; , monospace , monospace , &amp;#34;droid sans fallback&amp;#34; ; font-size: 12px ; background-color: rgb(255 , 255 , 254)&quot;&gt;:&amp;nbsp;&lt;font color=&quot;#0451a5&quot;&gt;&lt;b&gt;true&lt;/b&gt;&lt;/font&gt;&lt;/span&gt;" style="edgeStyle=orthogonalEdgeStyle;rounded=0;orthogonalLoop=1;jettySize=auto;html=1;exitX=0.5;exitY=1;exitDx=0;exitDy=0;" edge="1" parent="1" source="ELI0qrgOZ5BdzHNoMAGf-6" target="ELI0qrgOZ5BdzHNoMAGf-29">
          <mxGeometry relative="1" as="geometry" />
        </mxCell>
        <mxCell id="ELI0qrgOZ5BdzHNoMAGf-6" value="是否存在用户" style="rhombus;whiteSpace=wrap;html=1;" vertex="1" parent="1">
          <mxGeometry x="140" y="280" width="80" height="80" as="geometry" />
        </mxCell>
        <mxCell id="ELI0qrgOZ5BdzHNoMAGf-7" value="&lt;span style=&quot;color: rgb(80 , 80 , 80) ; font-family: &amp;#34;opensans&amp;#34; , &amp;#34;helvetica&amp;#34; , &amp;#34;arial&amp;#34; , sans-serif ; text-align: left ; background-color: rgb(255 , 255 , 255)&quot;&gt;/user/special/add&lt;/span&gt;&lt;br&gt;只读用户&lt;br&gt;默认工作空间" style="shape=process;whiteSpace=wrap;html=1;backgroundOutline=1;" vertex="1" parent="1">
          <mxGeometry x="520" y="290" width="120" height="60" as="geometry" />
        </mxCell>
        <mxCell id="ELI0qrgOZ5BdzHNoMAGf-25" value="&lt;span style=&quot;font-family: &amp;#34;droid sans mono&amp;#34; , monospace , monospace , &amp;#34;droid sans fallback&amp;#34; ; font-size: 12px ; font-style: normal ; font-weight: 400 ; letter-spacing: normal ; text-align: center ; text-indent: 0px ; text-transform: none ; word-spacing: 0px ; background-color: rgb(255 , 255 , 254) ; color: rgb(163 , 21 , 21)&quot;&gt;&quot;success&quot;&lt;/span&gt;&lt;span style=&quot;color: rgb(0 , 0 , 0) ; font-family: &amp;#34;droid sans mono&amp;#34; , monospace , monospace , &amp;#34;droid sans fallback&amp;#34; ; font-size: 12px ; font-style: normal ; font-weight: 400 ; letter-spacing: normal ; text-align: center ; text-indent: 0px ; text-transform: none ; word-spacing: 0px ; background-color: rgb(255 , 255 , 254)&quot;&gt;:&lt;span&gt;&amp;nbsp;&lt;/span&gt;&lt;/span&gt;&lt;span style=&quot;font-family: &amp;#34;droid sans mono&amp;#34; , monospace , monospace , &amp;#34;droid sans fallback&amp;#34; ; font-size: 12px ; font-style: normal ; letter-spacing: normal ; text-align: center ; text-indent: 0px ; text-transform: none ; word-spacing: 0px ; background-color: rgb(255 , 255 , 254) ; color: rgb(4 , 81 , 165) ; font-weight: bold&quot;&gt;false/true&lt;/span&gt;" style="endArrow=classic;html=1;exitX=0;exitY=1;exitDx=0;exitDy=0;entryX=1;entryY=1;entryDx=0;entryDy=0;" edge="1" parent="1" source="ELI0qrgOZ5BdzHNoMAGf-5" target="ELI0qrgOZ5BdzHNoMAGf-4">
          <mxGeometry width="50" height="50" relative="1" as="geometry">
            <mxPoint x="390" y="250" as="sourcePoint" />
            <mxPoint x="440" y="200" as="targetPoint" />
          </mxGeometry>
        </mxCell>
        <mxCell id="ELI0qrgOZ5BdzHNoMAGf-29" value="结束" style="rounded=1;whiteSpace=wrap;html=1;" vertex="1" parent="1">
          <mxGeometry x="120" y="440" width="120" height="60" as="geometry" />
        </mxCell>
      </root>
    </mxGraphModel>
  </diagram>
  <diagram id="aR2WzzmfOCvFUp8l_jCG" name="项目关联">
    <mxGraphModel dx="1783" dy="974" grid="1" gridSize="10" guides="1" tooltips="1" connect="1" arrows="1" fold="1" page="1" pageScale="1" pageWidth="827" pageHeight="1169" math="0" shadow="0">
      <root>
        <mxCell id="hyyFNtLHfnwPZ0Lmlfuo-0" />
        <mxCell id="hyyFNtLHfnwPZ0Lmlfuo-1" parent="hyyFNtLHfnwPZ0Lmlfuo-0" />
        <mxCell id="hyyFNtLHfnwPZ0Lmlfuo-2" style="edgeStyle=orthogonalEdgeStyle;rounded=0;orthogonalLoop=1;jettySize=auto;html=1;entryX=0;entryY=0.5;entryDx=0;entryDy=0;" edge="1" parent="hyyFNtLHfnwPZ0Lmlfuo-1" source="hyyFNtLHfnwPZ0Lmlfuo-3" target="hyyFNtLHfnwPZ0Lmlfuo-4">
          <mxGeometry relative="1" as="geometry" />
        </mxCell>
        <mxCell id="hyyFNtLHfnwPZ0Lmlfuo-3" value="项目（增删）" style="shape=process;whiteSpace=wrap;html=1;backgroundOutline=1;" vertex="1" parent="hyyFNtLHfnwPZ0Lmlfuo-1">
          <mxGeometry x="120" y="160" width="120" height="60" as="geometry" />
        </mxCell>
        <mxCell id="hyyFNtLHfnwPZ0Lmlfuo-4" value="工作空间（增删）&lt;br&gt;&lt;span style=&quot;color: rgb(80 , 80 , 80) ; font-family: &amp;#34;opensans&amp;#34; , &amp;#34;helvetica&amp;#34; , &amp;#34;arial&amp;#34; , sans-serif ; text-align: left ; background-color: rgb(255 , 255 , 255)&quot;&gt;/workspace/special/add&lt;/span&gt;" style="shape=process;whiteSpace=wrap;html=1;backgroundOutline=1;" vertex="1" parent="hyyFNtLHfnwPZ0Lmlfuo-1">
          <mxGeometry x="520" y="160" width="200" height="60" as="geometry" />
        </mxCell>
        <mxCell id="EpImOU5Jvzk9dzo_M3Wd-68" value="关联用户到工作空间" style="edgeStyle=orthogonalEdgeStyle;rounded=0;orthogonalLoop=1;jettySize=auto;html=1;" edge="1" parent="hyyFNtLHfnwPZ0Lmlfuo-1" source="hyyFNtLHfnwPZ0Lmlfuo-5" target="EpImOU5Jvzk9dzo_M3Wd-2">
          <mxGeometry relative="1" as="geometry" />
        </mxCell>
        <mxCell id="hyyFNtLHfnwPZ0Lmlfuo-5" value="项目（修改）" style="shape=process;whiteSpace=wrap;html=1;backgroundOutline=1;" vertex="1" parent="hyyFNtLHfnwPZ0Lmlfuo-1">
          <mxGeometry x="120" y="280" width="120" height="60" as="geometry" />
        </mxCell>
        <mxCell id="hyyFNtLHfnwPZ0Lmlfuo-7" value="userId,projectName" style="edgeStyle=orthogonalEdgeStyle;rounded=0;orthogonalLoop=1;jettySize=auto;html=1;" edge="1" parent="hyyFNtLHfnwPZ0Lmlfuo-1" source="hyyFNtLHfnwPZ0Lmlfuo-8" target="hyyFNtLHfnwPZ0Lmlfuo-9">
          <mxGeometry relative="1" as="geometry" />
        </mxCell>
        <mxCell id="hyyFNtLHfnwPZ0Lmlfuo-8" value="接口测试" style="shape=process;whiteSpace=wrap;html=1;backgroundOutline=1;" vertex="1" parent="hyyFNtLHfnwPZ0Lmlfuo-1">
          <mxGeometry x="120" y="440" width="120" height="60" as="geometry" />
        </mxCell>
        <mxCell id="EpImOU5Jvzk9dzo_M3Wd-69" style="edgeStyle=orthogonalEdgeStyle;rounded=0;orthogonalLoop=1;jettySize=auto;html=1;entryX=0.5;entryY=0;entryDx=0;entryDy=0;" edge="1" parent="hyyFNtLHfnwPZ0Lmlfuo-1" source="hyyFNtLHfnwPZ0Lmlfuo-9" target="EpImOU5Jvzk9dzo_M3Wd-64">
          <mxGeometry relative="1" as="geometry" />
        </mxCell>
        <mxCell id="hyyFNtLHfnwPZ0Lmlfuo-9" value="登入 MS" style="shape=process;whiteSpace=wrap;html=1;backgroundOutline=1;" vertex="1" parent="hyyFNtLHfnwPZ0Lmlfuo-1">
          <mxGeometry x="520" y="440" width="120" height="60" as="geometry" />
        </mxCell>
        <mxCell id="EpImOU5Jvzk9dzo_M3Wd-0" value="OPS" style="rounded=0;whiteSpace=wrap;html=1;" vertex="1" parent="hyyFNtLHfnwPZ0Lmlfuo-1">
          <mxGeometry x="120" y="40" width="120" height="60" as="geometry" />
        </mxCell>
        <mxCell id="EpImOU5Jvzk9dzo_M3Wd-1" value="MS API" style="rounded=1;whiteSpace=wrap;html=1;" vertex="1" parent="hyyFNtLHfnwPZ0Lmlfuo-1">
          <mxGeometry x="520" y="40" width="120" height="60" as="geometry" />
        </mxCell>
        <mxCell id="EpImOU5Jvzk9dzo_M3Wd-2" value="工作空间（修改该）&lt;br&gt;&lt;span style=&quot;color: rgb(80 , 80 , 80) ; font-family: &amp;#34;opensans&amp;#34; , &amp;#34;helvetica&amp;#34; , &amp;#34;arial&amp;#34; , sans-serif ; text-align: left ; background-color: rgb(255 , 255 , 255)&quot;&gt;/user/special/ws/member/add&lt;/span&gt;" style="shape=process;whiteSpace=wrap;html=1;backgroundOutline=1;" vertex="1" parent="hyyFNtLHfnwPZ0Lmlfuo-1">
          <mxGeometry x="520" y="280" width="200" height="60" as="geometry" />
        </mxCell>
        <mxCell id="EpImOU5Jvzk9dzo_M3Wd-25" value="" style="shape=table;html=1;whiteSpace=wrap;startSize=0;container=1;collapsible=0;childLayout=tableLayout;" vertex="1" parent="hyyFNtLHfnwPZ0Lmlfuo-1">
          <mxGeometry x="150" y="830" width="600" height="240" as="geometry" />
        </mxCell>
        <mxCell id="EpImOU5Jvzk9dzo_M3Wd-26" value="" style="shape=partialRectangle;html=1;whiteSpace=wrap;collapsible=0;dropTarget=0;pointerEvents=0;fillColor=none;top=0;left=0;bottom=0;right=0;points=[[0,0.5],[1,0.5]];portConstraint=eastwest;" vertex="1" parent="EpImOU5Jvzk9dzo_M3Wd-25">
          <mxGeometry width="600" height="40" as="geometry" />
        </mxCell>
        <mxCell id="EpImOU5Jvzk9dzo_M3Wd-27" value="ops_project_name" style="shape=partialRectangle;html=1;whiteSpace=wrap;connectable=0;overflow=hidden;fillColor=none;top=0;left=0;bottom=0;right=0;" vertex="1" parent="EpImOU5Jvzk9dzo_M3Wd-26">
          <mxGeometry width="140" height="40" as="geometry" />
        </mxCell>
        <mxCell id="EpImOU5Jvzk9dzo_M3Wd-28" value="&lt;span&gt;ms_user_id&lt;/span&gt;" style="shape=partialRectangle;html=1;whiteSpace=wrap;connectable=0;overflow=hidden;fillColor=none;top=0;left=0;bottom=0;right=0;" vertex="1" parent="EpImOU5Jvzk9dzo_M3Wd-26">
          <mxGeometry x="140" width="140" height="40" as="geometry" />
        </mxCell>
        <mxCell id="EpImOU5Jvzk9dzo_M3Wd-29" value="&lt;meta charset=&quot;utf-8&quot;&gt;&lt;span style=&quot;color: rgb(0, 0, 0); font-family: helvetica; font-size: 12px; font-style: normal; font-weight: 400; letter-spacing: normal; text-align: center; text-indent: 0px; text-transform: none; word-spacing: 0px; background-color: rgb(248, 249, 250); display: inline; float: none;&quot;&gt;ms_workspace_name&lt;/span&gt;" style="shape=partialRectangle;html=1;whiteSpace=wrap;connectable=0;overflow=hidden;fillColor=none;top=0;left=0;bottom=0;right=0;" vertex="1" parent="EpImOU5Jvzk9dzo_M3Wd-26">
          <mxGeometry x="280" width="140" height="40" as="geometry" />
        </mxCell>
        <mxCell id="EpImOU5Jvzk9dzo_M3Wd-30" value="&lt;span style=&quot;font-family: &amp;#34;helvetica&amp;#34;&quot;&gt;ms_workspace_id&lt;/span&gt;" style="shape=partialRectangle;html=1;whiteSpace=wrap;connectable=0;overflow=hidden;fillColor=none;top=0;left=0;bottom=0;right=0;" vertex="1" parent="EpImOU5Jvzk9dzo_M3Wd-26">
          <mxGeometry x="420" width="180" height="40" as="geometry" />
        </mxCell>
        <mxCell id="EpImOU5Jvzk9dzo_M3Wd-31" value="" style="shape=partialRectangle;html=1;whiteSpace=wrap;collapsible=0;dropTarget=0;pointerEvents=0;fillColor=none;top=0;left=0;bottom=0;right=0;points=[[0,0.5],[1,0.5]];portConstraint=eastwest;" vertex="1" parent="EpImOU5Jvzk9dzo_M3Wd-25">
          <mxGeometry y="40" width="600" height="40" as="geometry" />
        </mxCell>
        <mxCell id="EpImOU5Jvzk9dzo_M3Wd-32" value="dd.shan" style="shape=partialRectangle;html=1;whiteSpace=wrap;connectable=0;overflow=hidden;fillColor=none;top=0;left=0;bottom=0;right=0;" vertex="1" parent="EpImOU5Jvzk9dzo_M3Wd-31">
          <mxGeometry width="140" height="40" as="geometry" />
        </mxCell>
        <mxCell id="EpImOU5Jvzk9dzo_M3Wd-33" value="dd.shan" style="shape=partialRectangle;html=1;whiteSpace=wrap;connectable=0;overflow=hidden;fillColor=none;top=0;left=0;bottom=0;right=0;" vertex="1" parent="EpImOU5Jvzk9dzo_M3Wd-31">
          <mxGeometry x="140" width="140" height="40" as="geometry" />
        </mxCell>
        <mxCell id="EpImOU5Jvzk9dzo_M3Wd-34" value="OPS项目" style="shape=partialRectangle;html=1;whiteSpace=wrap;connectable=0;overflow=hidden;fillColor=none;top=0;left=0;bottom=0;right=0;" vertex="1" parent="EpImOU5Jvzk9dzo_M3Wd-31">
          <mxGeometry x="280" width="140" height="40" as="geometry" />
        </mxCell>
        <mxCell id="EpImOU5Jvzk9dzo_M3Wd-35" value="adfdsfdsfd" style="shape=partialRectangle;html=1;whiteSpace=wrap;connectable=0;overflow=hidden;fillColor=none;top=0;left=0;bottom=0;right=0;" vertex="1" parent="EpImOU5Jvzk9dzo_M3Wd-31">
          <mxGeometry x="420" width="180" height="40" as="geometry" />
        </mxCell>
        <mxCell id="EpImOU5Jvzk9dzo_M3Wd-36" value="" style="shape=partialRectangle;html=1;whiteSpace=wrap;collapsible=0;dropTarget=0;pointerEvents=0;fillColor=none;top=0;left=0;bottom=0;right=0;points=[[0,0.5],[1,0.5]];portConstraint=eastwest;" vertex="1" parent="EpImOU5Jvzk9dzo_M3Wd-25">
          <mxGeometry y="80" width="600" height="40" as="geometry" />
        </mxCell>
        <mxCell id="EpImOU5Jvzk9dzo_M3Wd-37" value="" style="shape=partialRectangle;html=1;whiteSpace=wrap;connectable=0;overflow=hidden;fillColor=none;top=0;left=0;bottom=0;right=0;" vertex="1" parent="EpImOU5Jvzk9dzo_M3Wd-36">
          <mxGeometry width="140" height="40" as="geometry" />
        </mxCell>
        <mxCell id="EpImOU5Jvzk9dzo_M3Wd-38" value="" style="shape=partialRectangle;html=1;whiteSpace=wrap;connectable=0;overflow=hidden;fillColor=none;top=0;left=0;bottom=0;right=0;" vertex="1" parent="EpImOU5Jvzk9dzo_M3Wd-36">
          <mxGeometry x="140" width="140" height="40" as="geometry" />
        </mxCell>
        <mxCell id="EpImOU5Jvzk9dzo_M3Wd-39" value="" style="shape=partialRectangle;html=1;whiteSpace=wrap;connectable=0;overflow=hidden;fillColor=none;top=0;left=0;bottom=0;right=0;" vertex="1" parent="EpImOU5Jvzk9dzo_M3Wd-36">
          <mxGeometry x="280" width="140" height="40" as="geometry" />
        </mxCell>
        <mxCell id="EpImOU5Jvzk9dzo_M3Wd-40" value="" style="shape=partialRectangle;html=1;whiteSpace=wrap;connectable=0;overflow=hidden;fillColor=none;top=0;left=0;bottom=0;right=0;" vertex="1" parent="EpImOU5Jvzk9dzo_M3Wd-36">
          <mxGeometry x="420" width="180" height="40" as="geometry" />
        </mxCell>
        <mxCell id="EpImOU5Jvzk9dzo_M3Wd-41" value="" style="shape=partialRectangle;html=1;whiteSpace=wrap;collapsible=0;dropTarget=0;pointerEvents=0;fillColor=none;top=0;left=0;bottom=0;right=0;points=[[0,0.5],[1,0.5]];portConstraint=eastwest;" vertex="1" parent="EpImOU5Jvzk9dzo_M3Wd-25">
          <mxGeometry y="120" width="600" height="40" as="geometry" />
        </mxCell>
        <mxCell id="EpImOU5Jvzk9dzo_M3Wd-42" value="" style="shape=partialRectangle;html=1;whiteSpace=wrap;connectable=0;overflow=hidden;fillColor=none;top=0;left=0;bottom=0;right=0;" vertex="1" parent="EpImOU5Jvzk9dzo_M3Wd-41">
          <mxGeometry width="140" height="40" as="geometry" />
        </mxCell>
        <mxCell id="EpImOU5Jvzk9dzo_M3Wd-43" value="" style="shape=partialRectangle;html=1;whiteSpace=wrap;connectable=0;overflow=hidden;fillColor=none;top=0;left=0;bottom=0;right=0;" vertex="1" parent="EpImOU5Jvzk9dzo_M3Wd-41">
          <mxGeometry x="140" width="140" height="40" as="geometry" />
        </mxCell>
        <mxCell id="EpImOU5Jvzk9dzo_M3Wd-44" value="" style="shape=partialRectangle;html=1;whiteSpace=wrap;connectable=0;overflow=hidden;fillColor=none;top=0;left=0;bottom=0;right=0;" vertex="1" parent="EpImOU5Jvzk9dzo_M3Wd-41">
          <mxGeometry x="280" width="140" height="40" as="geometry" />
        </mxCell>
        <mxCell id="EpImOU5Jvzk9dzo_M3Wd-45" value="" style="shape=partialRectangle;html=1;whiteSpace=wrap;connectable=0;overflow=hidden;fillColor=none;top=0;left=0;bottom=0;right=0;" vertex="1" parent="EpImOU5Jvzk9dzo_M3Wd-41">
          <mxGeometry x="420" width="180" height="40" as="geometry" />
        </mxCell>
        <mxCell id="EpImOU5Jvzk9dzo_M3Wd-46" value="" style="shape=partialRectangle;html=1;whiteSpace=wrap;collapsible=0;dropTarget=0;pointerEvents=0;fillColor=none;top=0;left=0;bottom=0;right=0;points=[[0,0.5],[1,0.5]];portConstraint=eastwest;" vertex="1" parent="EpImOU5Jvzk9dzo_M3Wd-25">
          <mxGeometry y="160" width="600" height="40" as="geometry" />
        </mxCell>
        <mxCell id="EpImOU5Jvzk9dzo_M3Wd-47" value="" style="shape=partialRectangle;html=1;whiteSpace=wrap;connectable=0;overflow=hidden;fillColor=none;top=0;left=0;bottom=0;right=0;" vertex="1" parent="EpImOU5Jvzk9dzo_M3Wd-46">
          <mxGeometry width="140" height="40" as="geometry" />
        </mxCell>
        <mxCell id="EpImOU5Jvzk9dzo_M3Wd-48" value="" style="shape=partialRectangle;html=1;whiteSpace=wrap;connectable=0;overflow=hidden;fillColor=none;top=0;left=0;bottom=0;right=0;" vertex="1" parent="EpImOU5Jvzk9dzo_M3Wd-46">
          <mxGeometry x="140" width="140" height="40" as="geometry" />
        </mxCell>
        <mxCell id="EpImOU5Jvzk9dzo_M3Wd-49" value="" style="shape=partialRectangle;html=1;whiteSpace=wrap;connectable=0;overflow=hidden;fillColor=none;top=0;left=0;bottom=0;right=0;" vertex="1" parent="EpImOU5Jvzk9dzo_M3Wd-46">
          <mxGeometry x="280" width="140" height="40" as="geometry" />
        </mxCell>
        <mxCell id="EpImOU5Jvzk9dzo_M3Wd-50" value="" style="shape=partialRectangle;html=1;whiteSpace=wrap;connectable=0;overflow=hidden;fillColor=none;top=0;left=0;bottom=0;right=0;" vertex="1" parent="EpImOU5Jvzk9dzo_M3Wd-46">
          <mxGeometry x="420" width="180" height="40" as="geometry" />
        </mxCell>
        <mxCell id="EpImOU5Jvzk9dzo_M3Wd-51" value="" style="shape=partialRectangle;html=1;whiteSpace=wrap;collapsible=0;dropTarget=0;pointerEvents=0;fillColor=none;top=0;left=0;bottom=0;right=0;points=[[0,0.5],[1,0.5]];portConstraint=eastwest;" vertex="1" parent="EpImOU5Jvzk9dzo_M3Wd-25">
          <mxGeometry y="200" width="600" height="40" as="geometry" />
        </mxCell>
        <mxCell id="EpImOU5Jvzk9dzo_M3Wd-52" value="" style="shape=partialRectangle;html=1;whiteSpace=wrap;connectable=0;overflow=hidden;fillColor=none;top=0;left=0;bottom=0;right=0;" vertex="1" parent="EpImOU5Jvzk9dzo_M3Wd-51">
          <mxGeometry width="140" height="40" as="geometry" />
        </mxCell>
        <mxCell id="EpImOU5Jvzk9dzo_M3Wd-53" value="" style="shape=partialRectangle;html=1;whiteSpace=wrap;connectable=0;overflow=hidden;fillColor=none;top=0;left=0;bottom=0;right=0;" vertex="1" parent="EpImOU5Jvzk9dzo_M3Wd-51">
          <mxGeometry x="140" width="140" height="40" as="geometry" />
        </mxCell>
        <mxCell id="EpImOU5Jvzk9dzo_M3Wd-54" value="" style="shape=partialRectangle;html=1;whiteSpace=wrap;connectable=0;overflow=hidden;fillColor=none;top=0;left=0;bottom=0;right=0;" vertex="1" parent="EpImOU5Jvzk9dzo_M3Wd-51">
          <mxGeometry x="280" width="140" height="40" as="geometry" />
        </mxCell>
        <mxCell id="EpImOU5Jvzk9dzo_M3Wd-55" value="" style="shape=partialRectangle;html=1;whiteSpace=wrap;connectable=0;overflow=hidden;fillColor=none;top=0;left=0;bottom=0;right=0;" vertex="1" parent="EpImOU5Jvzk9dzo_M3Wd-51">
          <mxGeometry x="420" width="180" height="40" as="geometry" />
        </mxCell>
        <mxCell id="EpImOU5Jvzk9dzo_M3Wd-70" style="edgeStyle=orthogonalEdgeStyle;rounded=0;orthogonalLoop=1;jettySize=auto;html=1;entryX=0.5;entryY=0;entryDx=0;entryDy=0;" edge="1" parent="hyyFNtLHfnwPZ0Lmlfuo-1" source="EpImOU5Jvzk9dzo_M3Wd-64" target="EpImOU5Jvzk9dzo_M3Wd-65">
          <mxGeometry relative="1" as="geometry" />
        </mxCell>
        <mxCell id="EpImOU5Jvzk9dzo_M3Wd-64" value="切换工作空间" style="shape=process;whiteSpace=wrap;html=1;backgroundOutline=1;" vertex="1" parent="hyyFNtLHfnwPZ0Lmlfuo-1">
          <mxGeometry x="520" y="560" width="120" height="60" as="geometry" />
        </mxCell>
        <mxCell id="EpImOU5Jvzk9dzo_M3Wd-65" value="加载页面" style="shape=process;whiteSpace=wrap;html=1;backgroundOutline=1;" vertex="1" parent="hyyFNtLHfnwPZ0Lmlfuo-1">
          <mxGeometry x="520" y="680" width="120" height="60" as="geometry" />
        </mxCell>
        <mxCell id="EpImOU5Jvzk9dzo_M3Wd-72" value="项目更新修改该时更新这张表" style="text;html=1;strokeColor=none;fillColor=none;align=left;verticalAlign=middle;whiteSpace=wrap;rounded=0;" vertex="1" parent="hyyFNtLHfnwPZ0Lmlfuo-1">
          <mxGeometry x="150" y="810" width="400" height="20" as="geometry" />
        </mxCell>
      </root>
    </mxGraphModel>
  </diagram>
</mxfile>
